<svg width="119" height="40" viewBox="0 0 119 40" xmlns="http://www.w3.org/2000/svg" xmlns:xlink="http://www.w3.org/1999/xlink"><defs><path id="a" d="M0 .26h11.362v12.337H0z"/></defs><g fill="none" fill-rule="evenodd"><path d="M109.65 20.337c-.403-6.036-5.386-10.866-11.431-11.096-6.799-.259-12.391 5.176-12.391 11.917 0 4.77 2.802 8.884 6.848 10.791l1.913-3.313a1.53 1.53 0 00-.462-2.037 6.531 6.531 0 01-2.902-5.836c.192-3.266 2.846-5.929 6.11-6.132a6.54 6.54 0 014.054 11.961 1.534 1.534 0 00-.473 2.043l1.913 3.314a11.924 11.924 0 006.822-11.612M97.24.007C85.85.274 76.635 9.687 76.594 21.08c-.03 8.22 4.632 15.35 11.457 18.88l1.908-3.305c.415-.718.2-1.65-.507-2.087-4.616-2.862-7.645-8.037-7.465-13.907.252-8.178 6.846-14.881 15.02-15.258 9.049-.417 16.517 6.797 16.517 15.755 0 5.657-2.98 10.616-7.454 13.4a1.543 1.543 0 00-.533 2.081l1.916 3.32c6.803-3.518 11.457-10.614 11.457-18.801 0-11.856-9.75-21.434-21.67-21.152" fill="#00B1C2"/><path fill="#009EAD" d="M4.046 9.437H1.415v11.928h7.062v-2.313h-4.43zm9.172 4.992c1.392 0 1.983.884 2.076 1.731h-4.116c.105-.81.696-1.731 2.04-1.731m0-1.941c-2.556 0-4.483 1.95-4.483 4.536 0 2.681 1.902 4.554 4.625 4.554 1.41 0 2.742-.449 3.562-1.2l.03-.028-.82-1.21a.396.396 0 00-.554-.104c-.52.36-1.313.602-1.97.602-1.274 0-2.214-.713-2.41-1.82h6.361v-.58c0-2.842-1.745-4.75-4.341-4.75m9.729 6.905a.312.312 0 00-.257-.009c-.151.06-.329.094-.5.094-.445 0-.733-.357-.733-.91v-3.802h1.738V12.7h-1.738v-2.34l-2.35.597v1.745H17.69v2.065h1.419v4.405c0 1.575.85 2.408 2.46 2.408 1.062 0 1.627-.307 1.913-.562l.021-.02-.39-1.403a.315.315 0 00-.165-.2m5.27-3.499c-.885-.177-1.582-.318-1.582-.753 0-.463.535-.785 1.3-.785.78 0 1.602.267 2.2.714a.41.41 0 00.328.074.395.395 0 00.262-.193l.714-1.258-.032-.026c-.976-.773-2.176-1.18-3.472-1.18-1.08 0-1.993.282-2.638.82-.594.494-.922 1.178-.922 1.924 0 2.088 1.877 2.465 3.385 2.768.943.19 1.69.34 1.69.85 0 .545-.507.857-1.39.857-.95 0-2.007-.467-2.635-.93a.399.399 0 00-.58.116l-.785 1.314.03.026c.912.842 2.357 1.344 3.863 1.344 2.293 0 3.774-1.09 3.774-2.78 0-2.196-2.03-2.604-3.51-2.902m31.779 4.897l-.334-1.2a.32.32 0 00-.424-.21 1.35 1.35 0 01-.5.095c-.445 0-.733-.357-.733-.91v-3.802h1.74V12.7h-1.74v-2.34l-2.347.596v1.745h-1.42v2.065h1.42v4.405c0 1.576.85 2.407 2.46 2.407.926 0 1.465-.238 1.756-.438a.318.318 0 00.122-.347m-21.498-3.774h3.122v1.35c-.469.425-1.43.878-2.454.878-2.13 0-3.677-1.613-3.677-3.837s1.546-3.838 3.677-3.838c1 0 1.945.469 2.593 1.286a.398.398 0 00.504.104l1.85-1.012-.027-.043c-.77-1.216-2.248-2.666-4.92-2.666-3.687 0-6.363 2.594-6.363 6.17 0 3.573 2.677 6.167 6.364 6.167 2 0 3.75-.772 5.057-2.233l.012-.014v-4.607h-5.738v2.295zm9.211-.859c.105-.81.697-1.731 2.04-1.731 1.392 0 1.983.884 2.077 1.731H47.71zm2.04-3.671c-2.555 0-4.483 1.95-4.483 4.535 0 2.681 1.902 4.554 4.625 4.554 1.41 0 2.743-.449 3.563-1.2l.03-.028-.82-1.21a.395.395 0 00-.555-.105c-.52.361-1.311.603-1.969.603-1.275 0-2.214-.713-2.41-1.82h6.36v-.58c0-2.842-1.744-4.75-4.34-4.75z"/><g transform="translate(0 22.803)"><mask id="b" fill="#fff"><use xlink:href="#a"/></mask><path d="M8.933 8.836c-.579.883-1.564 1.43-2.57 1.43-2.13 0-3.678-1.613-3.678-3.837 0-2.223 1.547-3.837 3.679-3.837 1.004 0 1.989.547 2.569 1.428a.4.4 0 00.51.144l1.919-.943-.025-.045C10.593 1.847 9.126.261 6.364.261 2.676.26 0 2.855 0 6.429c0 3.574 2.676 6.168 6.364 6.168 2.737 0 4.215-1.595 4.973-2.933l.025-.045-1.92-.928a.403.403 0 00-.509.145" fill="#009EAD" mask="url(#b)"/></g><path d="M17.858 26.31c-1.606 0-2.59.854-2.95 1.236V23.26H12.54v11.928h2.367v-5.815c.185-.242.826-.962 1.903-.962 1.06 0 1.531.467 1.531 1.514v5.263h2.349v-6.132c0-1.77-1.006-2.745-2.833-2.745m10.275 3.671h-4.115c.105-.81.696-1.731 2.04-1.731 1.391 0 1.982.885 2.075 1.731m-2.076-3.672c-2.556 0-4.483 1.95-4.483 4.536 0 2.68 1.902 4.554 4.625 4.554 1.41 0 2.742-.45 3.563-1.2l.03-.028-.82-1.21a.396.396 0 00-.556-.104c-.52.36-1.31.602-1.969.602-1.275 0-2.213-.713-2.41-1.821h6.362v-.58c0-2.84-1.745-4.749-4.342-4.749m9.764 2.1c.64 0 1.164.214 1.557.634.071.076.169.12.275.124a.394.394 0 00.287-.107l1.227-1.154-.025-.033c-.421-.58-1.422-1.553-3.393-1.563h-.026c-2.497 0-4.556 1.987-4.597 4.443-.022 1.3.424 2.481 1.254 3.326.838.852 2.022 1.32 3.334 1.32 1.982 0 2.998-.99 3.428-1.58l.025-.034-1.239-1.164a.389.389 0 00-.554.026c-.403.426-.94.652-1.553.652-1.34 0-2.276-1.009-2.276-2.453 0-1.458.915-2.437 2.276-2.437m9.261 1.912l3.314-3.799h-2.894l-3.177 3.732v-6.997h-2.35v11.929h2.35v-2.228l.976-1.043 2.237 3.25.014.02h2.941l-3.421-4.584a.223.223 0 01.01-.28" fill="#009EAD"/><path d="M50.698 29.982c.105-.81.696-1.731 2.04-1.731 1.391 0 1.982.885 2.075 1.731h-4.115zm2.04-3.672c-2.555 0-4.483 1.95-4.483 4.536 0 2.68 1.902 4.554 4.625 4.554 1.41 0 2.743-.45 3.562-1.2l.031-.028-.82-1.21a.394.394 0 00-.257-.168.391.391 0 00-.298.063c-.52.36-1.313.602-1.97.602-1.274 0-2.213-.712-2.41-1.82h6.361v-.58c0-2.84-1.744-4.749-4.341-4.749zm11.489 3.043v3.005c-.367.546-1.157.942-1.886.942-1.277 0-2.136-.987-2.136-2.454 0-1.457.86-2.436 2.136-2.436.73 0 1.519.396 1.886.943zm0-6.094v4.275a3.293 3.293 0 00-2.596-1.223c-2.3 0-3.845 1.822-3.845 4.536 0 2.724 1.546 4.553 3.845 4.553 1.022 0 1.915-.423 2.596-1.226v1.014h2.366V23.259h-2.366z" fill="#009EAD"/><path d="M109.65 20.337c-.403-6.036-5.386-10.866-11.431-11.096-6.799-.259-12.391 5.176-12.391 11.917 0 4.77 2.802 8.884 6.848 10.791l1.913-3.313a1.53 1.53 0 00-.462-2.037 6.531 6.531 0 01-2.902-5.836c.192-3.266 2.846-5.929 6.11-6.132a6.54 6.54 0 014.054 11.961 1.534 1.534 0 00-.473 2.043l1.913 3.314a11.924 11.924 0 006.822-11.612" fill="#00B1C2"/></g></svg>